PathFileType	4	(X/Y/Z)	D:\Share\Shared_Data\Ergonomics\Sit To Stand Pertubation\S0\Free STS.trc
DataRate	CameraRate	NumFrames	NumMarkers	Units	OrigDataRate	OrigDataStartFrame	OrigNumFrames	
100	100	12	18	m	100	3927	211
Frame#	Time	R_Toe			R_ASIS			R_Pelvis			V_Sacral			L_Pelvis			L_ASIS			Clavical			R_Acromium			L_Acromium			Sternum			Torso			R_Thigh_Med			R_Thigh_Lat			R_Thigh			R_Shank_Med			R_Shank_Lat			R_Shank			R_Heel			
		X1	Y1	Z1	X2	Y2	Z2	X3	Y3	Z3	X4	Y4	Z4	X5	Y5	Z5	X6	Y6	Z6	X7	Y7	Z7	X8	Y8	Z8	X9	Y9	Z9	X10	Y10	Z10	X11	Y11	Z11	X12	Y12	Z12	X13	Y13	Z13	X14	Y14	Z14	X15	Y15	Z15	X16	Y16	Z16	X17	Y17	Z17	X18	Y18	Z18	

3927	25.69	0.37195175	0.054000549	0.14351314	0.0094266548	0.74951825	0.14989809	-0.113899	0.77726776	0.19165126	-0.23279196	0.78287537	-0.041968266	-0.084303467	0.761685	-0.21979668	0.033390877	0.72977179	-0.16870602	0.27431128	1.005782	-0.0081727457	0.23674098	1.1067244	0.1262493	0.23427203	1.1109235	-0.15306483	0.24635059	0.9134223	-0.027162916	0.25435579	0.96776013	-0.13012773	0.2889371	0.49128827	0.077218956	0.26906601	0.51049704	0.21018549	0.21180882	0.65013568	0.12548023	0.2523486	0.10277313	0.10689387	0.19358482	0.088559502	0.1938636	0.23831621	0.31042383	0.2175251	0.15476083	0.043598541	0.1469272
3928	25.7	0.37198163	0.053865028	0.14329919	0.013676862	0.75075378	0.14968663	-0.10906978	0.78065875	0.19149113	-0.22807957	0.7878714	-0.042031269	-0.079804543	0.76428857	-0.21984793	0.037122753	0.73040259	-0.16862758	0.28319379	1.0032632	-0.0075041795	0.24663663	1.1051234	0.12629779	0.24387689	1.1090859	-0.15226122	0.25416515	0.9113147	-0.026995045	0.26257584	0.96571497	-0.12942	0.28971271	0.49119034	0.076865875	0.27017148	0.51049347	0.20987459	0.21370671	0.65041528	0.12508377	0.25253561	0.10259962	0.10667036	0.1937532	0.088539185	0.19373497	0.23903798	0.31034274	0.21722423	0.15481348	0.043565475	0.14685895
3929	25.71	0.37201843	0.053704376	0.14308928	0.018000875	0.75204486	0.14942561	-0.10414475	0.78411035	0.19127638	-0.22323915	0.79291919	-0.042131657	-0.075180634	0.76692969	-0.21990443	0.040963722	0.73109149	-0.16852768	0.29187842	1.0008737	-0.0068720965	0.25639154	1.1035973	0.12633392	0.25326538	1.1073599	-0.15143175	0.26185806	0.90930841	-0.026809093	0.27061182	0.96380078	-0.128668	0.29055508	0.49105795	0.076519485	0.27135889	0.5104733	0.20957022	0.21570683	0.65066888	0.12464303	0.25272939	0.10243166	0.10643787	0.19391534	0.088525742	0.19359566	0.23977621	0.31025833	0.21692694	0.15485339	0.043537064	0.14677399
3930	25.72	0.37206061	0.053531322	0.14290117	0.022381149	0.75339203	0.14913257	-0.099146263	0.78759668	0.1910182	-0.21828912	0.79799249	-0.042268147	-0.070440704	0.76960187	-0.21995886	0.044909901	0.73184149	-0.16839893	0.30032864	0.99864996	-0.00629036	0.26595547	1.1021531	0.12635294	0.26240601	1.1057644	-0.15058798	0.26939978	0.9074314	-0.02660335	0.27844794	0.96203876	-0.1278754	0.29146902	0.49089203	0.076199997	0.27262222	0.51043375	0.20929343	0.21781505	0.6509032	0.12419449	0.25292625	0.10227447	0.10621416	0.1940674	0.088516151	0.1934541	0.24051315	0.31017114	0.21665079	0.15487997	0.043511364	0.14667996
3931	25.73	0.37210632	0.0533578	0.14275009	0.026800175	0.75480115	0.14882642	-0.094099686	0.79109406	0.19073032	-0.2132527	0.80306403	-0.042435307	-0.065598236	0.77230444	-0.22000381	0.048949009	0.73266479	-0.16823639	0.30852182	0.99662659	-0.0057643685	0.27528082	1.1008048	0.12635252	0.2712756	1.1043219	-0.14974516	0.27674707	0.90571893	-0.026383101	0.28607632	0.96045135	-0.12704821	0.29245984	0.49069763	0.07592524	0.27394705	0.51037259	0.20906369	0.22003584	0.65112701	0.12377902	0.25312183	0.1021313	0.10601505	0.19420621	0.088507439	0.19331969	0.24123586	0.31008353	0.21641115	0.15489374	0.043487793	0.14658604
3932	25.74	0.37215408	0.053193459	0.14264655	0.031239771	0.75628241	0.14852483	-0.089032082	0.79458087	0.19042728	-0.20815784	0.80810693	-0.042624931	-0.060671513	0.77503998	-0.22003236	0.05306546	0.73357928	-0.16803783	0.31644357	0.9948324	-0.0052936406	0.28432376	1.099574	0.12633141	0.27985919	1.1030559	-0.14892101	0.28385147	0.90420691	-0.026155279	0.2934968	0.95906097	-0.12619669	0.29353262	0.49048251	0.075709274	0.27531512	0.51028931	0.20889644	0.22236952	0.65134747	0.1234353	0.253311	0.10200267	0.10585156	0.19432979	0.088497429	0.19320142	0.24193762	0.30999832	0.21621936	0.15489616	0.043466877	0.14650073
3933	25.75	0.37220328	0.053044777	0.14259552	0.035681515	0.75784863	0.1482428	-0.083970894	0.79803827	0.19012331	-0.2030356	0.81309521	-0.042827797	-0.055683701	0.77781311	-0.22003867	0.057243069	0.73460437	-0.16780507	0.32408087	0.99329004	-0.0048751254	0.29304517	1.0984871	0.12628767	0.28814816	1.1019893	-0.14813345	0.29066992	0.90292731	-0.025925636	0.3007106	0.9578891	-0.12533489	0.29469034	0.49025473	0.075561287	0.27671115	0.51018524	0.20880052	0.22481337	0.65156921	0.12319323	0.25348801	0.10188628	0.10572952	0.19443767	0.088485222	0.1931064	0.24261794	0.30991754	0.21608224	0.15488947	0.043449783	0.14643048
3934	25.76	0.37225415	0.052915035	0.14259666	0.0401078	0.7595116	0.14799281	-0.07894352	0.80145337	0.1898322	-0.19791797	0.818005	-0.043034939	-0.050662247	0.78062897	-0.22001894	0.061465305	0.73575934	-0.16754504	0.33142029	0.99201886	-0.0045052252	0.30141306	1.0975739	0.12621838	0.29613928	1.1011428	-0.14739893	0.29717233	0.90190631	-0.025700012	0.30771378	0.95695544	-0.12447924	0.29593329	0.49002063	0.075484787	0.27812744	0.51006317	0.20877664	0.22736626	0.65179633	0.12306902	0.25364655	0.10177773	0.10565045	0.19453093	0.088470863	0.19303899	0.24328036	0.30984134	0.21600191	0.15487613	0.043437851	0.14637923
3935	25.77	0.37230762	0.052804745	0.14264476	0.044501842	0.76127795	0.1477843	-0.07397702	0.80482147	0.18956755	-0.19283501	0.82281683	-0.043238159	-0.045636982	0.7834917	-0.21997206	0.065715523	0.73706042	-0.16726865	0.33845047	0.99103564	-0.0041806593	0.30940494	1.096869	0.12612058	0.30383212	1.1005345	-0.14673064	0.30334644	0.90116547	-0.025485489	0.31449628	0.95627765	-0.12364745	0.29725833	0.48978409	0.075477509	0.27956494	0.50992661	0.20881683	0.23002951	0.65203217	0.12306347	0.25378027	0.10167175	0.10561274	0.19461191	0.088454933	0.19300079	0.24392999	0.30976868	0.21597586	0.1548587	0.04343214	0.14634879
3936	25.78	0.37236411	0.052712212	0.14273022	0.048847401	0.76314752	0.14762376	-0.069095467	0.80814697	0.18934209	-0.18781139	0.82751666	-0.043429806	-0.040637474	0.7864035	-0.21989986	0.069978134	0.7385188	-0.16698738	0.34516638	0.99035602	-0.0038986163	0.31700876	1.0964082	0.12599328	0.3112269	1.1001816	-0.14613762	0.30919727	0.90072174	-0.025288872	0.32104572	0.9558717	-0.12285757	0.2986593	0.48954663	0.075531273	0.28103195	0.50977939	0.20890628	0.23280176	0.65227905	0.12316373	0.25388301	0.10156351	0.10561248	0.19468327	0.088438042	0.19299094	0.24457317	0.30969839	0.21599693	0.15483942	0.043433105	0.14633943
3937	25.79	0.37242285	0.052634304	0.14284013	0.05313028	0.76511475	0.14751593	-0.064316154	0.81144073	0.18916631	-0.18286363	0.83209967	-0.043602486	-0.035690289	0.78936591	-0.21980676	0.07423938	0.74014093	-0.16670958	0.35157245	0.98999457	-0.0036567154	0.32422318	1.0962285	0.12583908	0.31832263	1.1000995	-0.14562421	0.31474518	0.90058807	-0.025114393	0.32735199	0.95575226	-0.12212675	0.30012625	0.48930798	0.075632462	0.28254037	0.50962555	0.20902647	0.23567538	0.65253906	0.12334739	0.25394859	0.10144927	0.10564414	0.19474724	0.08842057	0.19300673	0.24521729	0.30963028	0.21605414	0.15481975	0.043440632	0.14635071
3938	25.8	0.37248166	0.052567184	0.14296011	0.057341618	0.76717401	0.14746423	-0.059646969	0.81471887	0.18904733	-0.1779987	0.8365719	-0.043749413	-0.030815926	0.79238049	-0.21969867	0.07848719	0.74192975	-0.16643875	0.35768161	0.98996466	-0.0034532354	0.33105621	1.0963629	0.12566451	0.32511679	1.1003041	-0.14519009	0.32002466	0.90077533	-0.02496303	0.33341028	0.95593378	-0.12147015	0.30164581	0.48906668	0.075762924	0.28409915	0.50946802	0.20915839	0.23863736	0.65281372	0.12358658	0.25397203	0.10132668	0.10570106	0.19480498	0.088402679	0.19304445	0.24586903	0.3095654	0.21613449	0.15480051	0.043454105	0.14638211
